<svg width="152" height="36" viewBox="0 0 152 36" xmlns="http://www.w3.org/2000/svg">
<g fill="#FFFFFF" stroke="#FFFFFF">
<path d="M48.944 28.504C46.448 28.504 44.348 27.952 42.644 26.848C40.94 25.72 39.74 24.196 39.044 22.276L43.292 19.792C44.276 22.36 46.208 23.644 49.088 23.644C50.48 23.644 51.5 23.392 52.148 22.888C52.796 22.384 53.12 21.748 53.12 20.98C53.12 20.092 52.724 19.408 51.932 18.928C51.14 18.424 49.724 17.884 47.684 17.308C46.556 16.972 45.596 16.636 44.804 16.3C44.036 15.964 43.256 15.52 42.464 14.968C41.696 14.392 41.108 13.672 40.7 12.808C40.292 11.944 40.088 10.936 40.088 9.784C40.088 7.504 40.892 5.692 42.5 4.348C44.132 2.98 46.088 2.296 48.368 2.296C50.408 2.296 52.196 2.8 53.732 3.808C55.292 4.792 56.504 6.172 57.368 7.948L53.192 10.36C52.184 8.2 50.576 7.12 48.368 7.12C47.336 7.12 46.52 7.36 45.92 7.84C45.344 8.296 45.056 8.896 45.056 9.64C45.056 10.432 45.38 11.08 46.028 11.584C46.7 12.064 47.972 12.592 49.844 13.168C50.612 13.408 51.188 13.6 51.572 13.744C51.98 13.864 52.52 14.068 53.192 14.356C53.888 14.62 54.416 14.872 54.776 15.112C55.16 15.352 55.592 15.676 56.072 16.084C56.552 16.492 56.912 16.912 57.152 17.344C57.416 17.776 57.632 18.304 57.8 18.928C57.992 19.528 58.088 20.188 58.088 20.908C58.088 23.236 57.236 25.084 55.532 26.452C53.852 27.82 51.656 28.504 48.944 28.504Z"/>
<path d="M147.22 24.724C144.676 27.244 141.58 28.504 137.932 28.504C134.284 28.504 131.188 27.244 128.644 24.724C126.124 22.18 124.864 19.072 124.864 15.4C124.864 11.728 126.124 8.632 128.644 6.112C131.188 3.568 134.284 2.296 137.932 2.296C141.58 2.296 144.676 3.568 147.22 6.112C149.764 8.632 151.036 11.728 151.036 15.4C151.036 19.072 149.764 22.18 147.22 24.724Z"/>
<circle cx="16" cy="16" r="14.5" stroke-width="3"/>
<path d="M15.7949 8.03393C15.6791 8.08713 15.5758 8.19666 15.532 8.31245C15.5132 8.36253 15.4976 8.60976 15.4976 8.86638C15.4976 9.3984 15.5289 9.34833 15.169 9.38275C14.8529 9.41405 14.2833 9.53923 13.914 9.66441C12.1959 10.2371 10.7939 11.4608 10.0052 13.0756C9.68916 13.7265 9.43567 14.5621 9.37934 15.1567C9.34491 15.5354 9.40438 15.4947 8.81915 15.5072C8.25584 15.5166 8.21828 15.5291 8.06807 15.7326C7.97731 15.8546 7.97731 16.1488 8.06807 16.2708C8.21828 16.4743 8.25584 16.4868 8.81915 16.4962C9.40438 16.5087 9.34491 16.468 9.37934 16.8467C9.43567 17.4413 9.68916 18.2769 10.0052 18.9278C10.797 20.5458 12.1928 21.7632 13.9265 22.3453C14.2833 22.4642 14.8435 22.5894 15.1721 22.6207C15.5226 22.6551 15.4913 22.6019 15.5038 23.184C15.5132 23.741 15.5257 23.7817 15.7292 23.9319C15.8512 24.0227 16.1454 24.0227 16.2674 23.9319C16.4709 23.7817 16.4834 23.741 16.4928 23.1902C16.499 22.846 16.5147 22.677 16.5397 22.6613C16.5616 22.6488 16.6305 22.6363 16.693 22.6363C16.9184 22.6363 17.6663 22.4767 18.0732 22.3421C19.5847 21.8445 20.8741 20.8181 21.7128 19.4442C22.1822 18.6743 22.5359 17.6478 22.6172 16.8279C22.6517 16.4774 22.5985 16.5087 23.1806 16.4962C23.7376 16.4868 23.7783 16.4743 23.9285 16.2708C24.0193 16.1488 24.0193 15.8546 23.9285 15.7326C23.7783 15.5291 23.7376 15.5166 23.1806 15.5072C22.5985 15.4947 22.6517 15.526 22.6172 15.1755C22.5828 14.8281 22.4545 14.2679 22.3199 13.8705C21.7441 12.1806 20.5236 10.791 18.9213 10.0055C18.2828 9.69258 17.4347 9.43908 16.8276 9.38275C16.4677 9.3452 16.5053 9.40779 16.4928 8.82257C16.4834 8.26238 16.4709 8.2217 16.2737 8.07461C16.1673 7.99637 15.9201 7.97447 15.7949 8.03393Z"/>
</g>
</svg>